<svg xmlns="http://www.w3.org/2000/svg" xmlns:xlink="http://www.w3.org/1999/xlink" width="2000" zoomAndPan="magnify" viewBox="0 0 1500 1499.999933" height="2000" preserveAspectRatio="xMidYMid meet" version="1.0"><defs><clipPath id="146fe4af7a"><path d="M 826.34375 750 L 925.34375 750 L 925.34375 847.5 L 826.34375 847.5 Z M 826.34375 750 " clip-rule="nonzero"/></clipPath></defs><path fill="#ea580c" d="M 750.585938 162 C 1080.910156 162 1349.511719 429.78125 1349.511719 760.242188 C 1349.511719 1033.742188 1165.46875 1263.925781 914.007812 1334.550781 C 903.742188 1337.988281 894.605469 1335.6875 886.605469 1329.984375 C 878.601562 1324.324219 875.164062 1315.1875 875.164062 1306.089844 L 875.164062 991.578125 C 875.164062 982.441406 870.59375 974.480469 863.722656 967.648438 L 807.703125 924.351562 C 782.5625 895.851562 771.160156 858.253906 772.289062 810.390625 C 775.726562 540.328125 835.148438 396.734375 949.457031 378.503906 L 949.457031 1235.429688 C 1135.757812 1157.933594 1267.210938 974.484375 1267.210938 760.246094 C 1267.210938 475.363281 1036.324219 244.046875 750.582031 244.046875 C 464.804688 244.046875 232.78125 475.363281 232.78125 760.246094 C 232.78125 974.484375 364.234375 1157.933594 550.539062 1235.429688 L 550.539062 378.5 C 665.980469 396.730469 724.269531 540.324219 727.703125 810.390625 C 728.835938 858.253906 717.394531 895.851562 692.253906 924.347656 L 637.402344 967.644531 C 629.398438 974.480469 624.832031 982.441406 624.832031 991.578125 L 624.832031 1306.089844 C 624.832031 1315.183594 621.394531 1324.320312 613.394531 1329.984375 C 605.390625 1335.683594 596.253906 1337.984375 587.117188 1334.550781 C 334.527344 1263.925781 150.488281 1033.742188 150.488281 760.242188 C 150.488281 429.78125 419.089844 162 750.585938 162 Z M 799.734375 1032.609375 C 813.441406 1032.609375 824.878906 1043.972656 824.878906 1057.671875 L 824.878906 1310.617188 C 824.878906 1324.320312 813.4375 1335.683594 799.734375 1335.683594 C 785.996094 1335.683594 774.554688 1324.320312 774.554688 1310.617188 L 774.554688 1057.671875 C 774.554688 1043.972656 785.996094 1032.609375 799.734375 1032.609375 Z M 700.261719 1032.609375 C 714.003906 1032.609375 725.402344 1043.972656 725.402344 1057.671875 L 725.402344 1310.617188 C 725.402344 1324.320312 714.003906 1335.683594 700.261719 1335.683594 C 686.558594 1335.683594 675.121094 1324.320312 675.121094 1310.617188 L 675.121094 1057.671875 C 675.117188 1043.972656 686.558594 1032.609375 700.261719 1032.609375 Z M 700.261719 1032.609375 " fill-opacity="1" fill-rule="evenodd"/><g clip-path="url(#146fe4af7a)"><path fill="#ea580c" d="M 876.015625 750 C 903.335938 750 925.546875 772.144531 925.546875 799.472656 C 925.546875 822.09375 910.328125 841.128906 889.53125 846.96875 C 888.683594 847.253906 887.925781 847.0625 887.265625 846.589844 C 886.601562 846.121094 886.320312 845.367188 886.320312 844.613281 L 886.320312 818.605469 C 886.320312 817.847656 885.941406 817.191406 885.375 816.625 L 880.742188 813.046875 C 878.660156 810.6875 877.71875 807.578125 877.8125 803.621094 C 878.097656 781.289062 883.011719 769.414062 892.464844 767.90625 L 892.464844 838.769531 C 907.871094 832.363281 918.742188 817.191406 918.742188 799.472656 C 918.742188 775.914062 899.648438 756.785156 876.015625 756.785156 C 852.382812 756.785156 833.195312 775.914062 833.195312 799.472656 C 833.195312 817.191406 844.066406 832.363281 859.472656 838.769531 L 859.472656 767.902344 C 869.019531 769.410156 873.839844 781.285156 874.125 803.621094 C 874.21875 807.578125 873.273438 810.6875 871.191406 813.046875 L 866.65625 816.625 C 865.996094 817.191406 865.617188 817.847656 865.617188 818.605469 L 865.617188 844.613281 C 865.617188 845.367188 865.332031 846.121094 864.671875 846.589844 C 864.007812 847.0625 863.253906 847.253906 862.5 846.96875 C 841.609375 841.128906 826.390625 822.09375 826.390625 799.472656 C 826.390625 772.144531 848.601562 750 876.015625 750 Z M 880.082031 822 C 881.214844 822 882.160156 822.9375 882.160156 824.070312 L 882.160156 844.988281 C 882.160156 846.121094 881.214844 847.0625 880.082031 847.0625 C 878.945312 847.0625 878 846.121094 878 844.988281 L 878 824.070312 C 878 822.9375 878.945312 822 880.082031 822 Z M 871.855469 822 C 872.992188 822 873.933594 822.9375 873.933594 824.070312 L 873.933594 844.988281 C 873.933594 846.121094 872.992188 847.0625 871.855469 847.0625 C 870.722656 847.0625 869.777344 846.121094 869.777344 844.988281 L 869.777344 824.070312 C 869.777344 822.9375 870.722656 822 871.855469 822 Z M 871.855469 822 " fill-opacity="1" fill-rule="evenodd"/></g></svg>
