<svg xmlns="http://www.w3.org/2000/svg" viewBox="0 0 32 32">
  <rect width="32" height="32" rx="6" fill="#EA580C"/>
  <svg x="3" y="3" width="26" height="26" viewBox="0 0 1500 1499.999933">
    <path fill="#ffffff" d="M 750.585938 162 C 1080.910156 162 1349.511719 429.78125 1349.511719 760.242188 C 1349.511719 1033.742188 1165.46875 1263.925781 914.007812 1334.550781 C 903.742188 1337.988281 894.605469 1335.6875 886.605469 1329.984375 C 878.601562 1324.324219 875.164062 1315.1875 875.164062 1306.089844 L 875.164062 991.578125 C 875.164062 982.441406 870.59375 974.480469 863.722656 967.648438 L 807.703125 924.351562 C 782.5625 895.851562 771.160156 858.253906 772.289062 810.390625 C 775.726562 540.328125 835.148438 396.734375 949.457031 378.503906 L 949.457031 1235.429688 C 1135.757812 1157.933594 1267.210938 974.484375 1267.210938 760.246094 C 1267.210938 475.363281 1036.324219 244.046875 750.582031 244.046875 C 464.804688 244.046875 232.78125 475.363281 232.78125 760.246094 C 232.78125 974.484375 364.234375 1157.933594 550.539062 1235.429688 L 550.539062 378.5 C 665.980469 396.730469 724.269531 540.324219 727.703125 810.390625 C 728.835938 858.253906 717.394531 895.851562 692.253906 924.347656 L 637.402344 967.644531 C 629.398438 974.480469 624.832031 982.441406 624.832031 991.578125 L 624.832031 1306.089844 C 624.832031 1315.183594 621.394531 1324.320312 613.394531 1329.984375 C 605.390625 1335.683594 596.253906 1337.984375 587.117188 1334.550781 C 334.527344 1263.925781 150.488281 1033.742188 150.488281 760.242188 C 150.488281 429.78125 419.089844 162 750.585938 162 Z M 799.734375 1032.609375 C 813.441406 1032.609375 824.878906 1043.972656 824.878906 1057.671875 L 824.878906 1310.617188 C 824.878906 1324.320312 813.4375 1335.683594 799.734375 1335.683594 C 785.996094 1335.683594 774.554688 1324.320312 774.554688 1310.617188 L 774.554688 1057.671875 C 774.554688 1043.972656 785.996094 1032.609375 799.734375 1032.609375 Z M 700.261719 1032.609375 C 714.003906 1032.609375 725.402344 1043.972656 725.402344 1057.671875 L 725.402344 1310.617188 C 725.402344 1324.320312 714.003906 1335.683594 700.261719 1335.683594 C 686.558594 1335.683594 675.121094 1324.320312 675.121094 1310.617188 L 675.121094 1057.671875 C 675.117188 1043.972656 686.558594 1032.609375 700.261719 1032.609375 Z" fill-opacity="1" fill-rule="evenodd"/>
  </svg>
</svg>
